<svg xmlns="http://www.w3.org/2000/svg" xmlns:xlink="http://www.w3.org/1999/xlink" width="500" zoomAndPan="magnify" viewBox="0 0 375 374.999991" height="500" preserveAspectRatio="xMidYMid meet" version="1.0"><defs><g/><clipPath id="d937d37b76"><path d="M 241.1875 206 L 290.6875 206 L 290.6875 213.351562 L 241.1875 213.351562 Z M 241.1875 206 " clip-rule="nonzero"/></clipPath><clipPath id="1bc865d999"><path d="M 245 177.351562 L 286 177.351562 L 286 206 L 245 206 Z M 245 177.351562 " clip-rule="nonzero"/></clipPath><clipPath id="6e6737ef36"><path d="M 170.800781 221.796875 L 199.300781 221.796875 L 199.300781 239.046875 L 170.800781 239.046875 Z M 170.800781 221.796875 " clip-rule="nonzero"/></clipPath></defs><g clip-path="url(#d937d37b76)"><path fill="#42a8aa" d="M 289.46875 208.964844 L 289.4375 208.964844 C 288.765625 208.964844 288.21875 208.421875 288.21875 207.746094 C 288.21875 207.074219 287.671875 206.527344 286.996094 206.527344 L 244.878906 206.527344 C 244.207031 206.527344 243.660156 207.074219 243.660156 207.746094 C 243.660156 208.417969 243.113281 208.964844 242.4375 208.964844 L 242.410156 208.964844 C 241.734375 208.964844 241.1875 209.507812 241.1875 210.183594 L 241.1875 212.117188 C 241.1875 212.789062 241.734375 213.335938 242.410156 213.335938 L 289.464844 213.335938 C 290.140625 213.335938 290.6875 212.792969 290.6875 212.117188 L 290.6875 210.183594 C 290.6875 209.507812 290.140625 208.964844 289.46875 208.964844 Z M 289.46875 208.964844 " fill-opacity="1" fill-rule="nonzero"/></g><g clip-path="url(#1bc865d999)"><path fill="#42a8aa" d="M 246.753906 205.574219 L 285.125 205.574219 C 285.757812 205.574219 286.136719 204.875 285.792969 204.347656 C 285.726562 204.246094 285.640625 204.164062 285.542969 204.101562 C 285.445312 204.039062 285.332031 204.003906 285.214844 203.988281 C 284.722656 194.164062 276.851562 186.28125 267.019531 185.738281 L 267.019531 184.4375 C 267.992188 184.199219 268.679688 183.648438 268.679688 183 C 268.679688 182.355469 267.996094 181.804688 267.019531 181.566406 L 267.019531 180.195312 L 271.003906 180.195312 C 271.003906 178.632812 268.738281 177.367188 265.9375 177.367188 C 263.140625 177.367188 260.871094 178.632812 260.871094 180.195312 L 264.859375 180.195312 L 264.859375 181.5625 C 263.882812 181.800781 263.199219 182.355469 263.199219 183 C 263.199219 183.644531 263.882812 184.195312 264.859375 184.4375 L 264.859375 185.738281 C 255.023438 186.277344 247.152344 194.164062 246.660156 203.988281 C 246.425781 204.015625 246.214844 204.144531 246.082031 204.34375 C 245.996094 204.480469 245.953125 204.628906 245.953125 204.773438 C 245.957031 205.191406 246.285156 205.574219 246.753906 205.574219 Z M 249.378906 198.078125 C 250.273438 195.972656 251.554688 194.078125 253.179688 192.453125 C 254.808594 190.828125 256.707031 189.550781 258.820312 188.660156 C 260.453125 187.972656 262.160156 187.535156 263.914062 187.359375 C 263.773438 187.417969 263.636719 187.472656 263.496094 187.53125 C 261.140625 188.527344 259.027344 189.949219 257.210938 191.761719 C 255.394531 193.574219 253.96875 195.683594 252.972656 198.03125 C 252.238281 199.753906 251.765625 201.554688 251.550781 203.40625 L 248.050781 203.40625 C 248.210938 201.566406 248.65625 199.78125 249.378906 198.078125 Z M 249.378906 198.078125 " fill-opacity="1" fill-rule="nonzero"/></g><g fill="#42a8aa" fill-opacity="1"><g transform="translate(76.019531, 213.139952)"><g><path d="M 41.09375 0 L 38.671875 0 C 34.398438 0 31.203125 -1.238281 29.078125 -3.71875 L 14.703125 -19.46875 L 28.75 -36 C 29.226562 -36.601562 29.300781 -37.175781 28.96875 -37.71875 C 28.644531 -38.269531 28.09375 -38.546875 27.3125 -38.546875 L 26.71875 -38.546875 L 26.71875 -39.203125 L 40.046875 -39.203125 L 40.046875 -38.546875 L 39.78125 -38.546875 C 37.125 -38.546875 35.015625 -37.757812 33.453125 -36.1875 L 19.203125 -20.96875 L 35.40625 -3.328125 C 36.1875 -2.367188 36.988281 -1.691406 37.8125 -1.296875 C 38.644531 -0.910156 39.738281 -0.695312 41.09375 -0.65625 Z M 16.265625 -0.65625 L 16.984375 -0.65625 L 16.984375 0 L 3.59375 0 L 3.59375 -0.65625 L 4.375 -0.65625 C 5.414062 -0.65625 6.304688 -1.003906 7.046875 -1.703125 C 7.796875 -2.398438 8.191406 -3.226562 8.234375 -4.1875 L 8.234375 -35.015625 C 8.191406 -35.972656 7.796875 -36.800781 7.046875 -37.5 C 6.304688 -38.195312 5.414062 -38.546875 4.375 -38.546875 L 3.59375 -38.546875 L 3.59375 -39.203125 L 16.984375 -39.203125 L 16.984375 -38.546875 L 16.203125 -38.546875 C 14.804688 -38.546875 13.71875 -37.976562 12.9375 -36.84375 C 12.582031 -36.320312 12.40625 -35.734375 12.40625 -35.078125 L 12.40625 -4.109375 C 12.40625 -3.148438 12.785156 -2.332031 13.546875 -1.65625 C 14.316406 -0.988281 15.222656 -0.65625 16.265625 -0.65625 Z M 16.265625 -0.65625 "/></g></g></g><g fill="#42a8aa" fill-opacity="1"><g transform="translate(116.779447, 213.139952)"><g><path d="M 4.5 -0.65625 C 5.675781 -0.65625 6.703125 -1.003906 7.578125 -1.703125 C 8.453125 -2.398438 8.890625 -3.226562 8.890625 -4.1875 L 8.890625 -35.015625 C 8.890625 -35.972656 8.453125 -36.800781 7.578125 -37.5 C 6.703125 -38.195312 5.65625 -38.546875 4.4375 -38.546875 L 3.59375 -38.546875 L 3.59375 -39.203125 L 18.359375 -39.203125 L 18.359375 -38.546875 L 17.515625 -38.546875 C 16.335938 -38.546875 15.320312 -38.21875 14.46875 -37.5625 C 13.625 -36.90625 13.15625 -36.097656 13.0625 -35.140625 L 13.0625 -4.109375 C 13.101562 -3.148438 13.5625 -2.332031 14.4375 -1.65625 C 15.3125 -0.988281 16.335938 -0.65625 17.515625 -0.65625 L 18.359375 -0.65625 L 18.421875 0 L 3.59375 0 L 3.59375 -0.65625 Z M 4.5 -0.65625 "/></g></g></g><g fill="#42a8aa" fill-opacity="1"><g transform="translate(138.727096, 213.139952)"><g><path d="M 55.921875 -0.65625 L 56.90625 -0.65625 L 56.90625 0 L 43.3125 0 L 43.3125 -0.59375 L 44.296875 -0.59375 C 44.941406 -0.59375 45.515625 -0.84375 46.015625 -1.34375 C 46.523438 -1.84375 46.734375 -2.441406 46.640625 -3.140625 L 43.25 -30.046875 L 30.90625 -5.75 C 29.6875 -3.09375 28.921875 -0.867188 28.609375 0.921875 L 27.953125 0.921875 L 12.21875 -29.46875 L 9.28125 -3.140625 C 9.1875 -2.484375 9.390625 -1.894531 9.890625 -1.375 C 10.398438 -0.851562 11 -0.59375 11.6875 -0.59375 L 12.609375 -0.59375 L 12.609375 0 L 0.515625 0 L 0.515625 -0.65625 L 1.5 -0.65625 C 3.070312 -0.65625 4.289062 -1.222656 5.15625 -2.359375 C 5.59375 -2.921875 5.851562 -3.59375 5.9375 -4.375 L 11.046875 -40.109375 L 11.6875 -40.109375 L 28.9375 -6.921875 L 45.59375 -40.109375 L 46.1875 -40.109375 L 51.484375 -4.25 C 51.648438 -3.15625 52.144531 -2.28125 52.96875 -1.625 C 53.800781 -0.976562 54.785156 -0.65625 55.921875 -0.65625 Z M 55.921875 -0.65625 "/></g></g></g><g fill="#42a8aa" fill-opacity="1"><g transform="translate(196.078381, 213.139952)"><g><path d="M 46.390625 -19.59375 C 46.390625 -13.539062 44.503906 -8.757812 40.734375 -5.25 C 36.960938 -1.75 31.851562 0 25.40625 0 L 3.59375 0 L 3.59375 -0.65625 L 4.4375 -0.65625 C 5.488281 -0.65625 6.359375 -1.003906 7.046875 -1.703125 C 7.742188 -2.398438 8.117188 -3.226562 8.171875 -4.1875 L 8.171875 -35.015625 C 8.117188 -36.054688 7.734375 -36.90625 7.015625 -37.5625 C 6.296875 -38.21875 5.414062 -38.546875 4.375 -38.546875 L 3.59375 -38.546875 L 3.59375 -39.203125 L 25.40625 -39.203125 C 29.675781 -39.203125 33.390625 -38.414062 36.546875 -36.84375 C 39.703125 -35.28125 42.128906 -33.015625 43.828125 -30.046875 C 45.535156 -27.085938 46.390625 -23.601562 46.390625 -19.59375 Z M 12.40625 -37.234375 L 12.40625 -1.953125 L 25.40625 -1.953125 C 30.414062 -1.953125 34.378906 -3.53125 37.296875 -6.6875 C 40.210938 -9.851562 41.671875 -14.15625 41.671875 -19.59375 C 41.671875 -25.039062 40.210938 -29.34375 37.296875 -32.5 C 34.378906 -35.65625 30.414062 -37.234375 25.40625 -37.234375 Z M 12.40625 -37.234375 "/></g></g></g><g clip-path="url(#6e6737ef36)"><path fill="#42a8aa" d="M 193.261719 236.753906 C 190.917969 238.136719 188.222656 238.277344 186.597656 238.207031 C 188.128906 237.402344 190.542969 235.808594 192.019531 233.195312 C 192.414062 232.496094 192.714844 231.777344 192.9375 231.058594 C 195.167969 230.425781 197.316406 230.5625 198.253906 230.671875 C 197.75 231.863281 196.1875 235.027344 193.261719 236.753906 Z M 176.835938 236.753906 C 173.917969 235.03125 172.351562 231.863281 171.84375 230.671875 C 172.78125 230.5625 174.929688 230.425781 177.160156 231.058594 C 177.382812 231.777344 177.679688 232.496094 178.074219 233.195312 C 179.554688 235.808594 181.96875 237.402344 183.5 238.207031 C 181.875 238.277344 179.179688 238.136719 176.835938 236.753906 Z M 177.425781 224.96875 C 178.589844 225.488281 181.691406 227.085938 183.375 230.066406 C 184.074219 231.304688 184.445312 232.636719 184.636719 233.863281 C 184.394531 235.523438 184.46875 236.976562 184.554688 237.808594 C 183.285156 237.222656 180.382812 235.636719 178.769531 232.785156 C 177.085938 229.804688 177.28125 226.257812 177.425781 224.96875 Z M 185.046875 222.878906 C 185.609375 223.652344 186.800781 225.488281 187.375 227.777344 C 186.882812 228.335938 186.421875 228.960938 186.023438 229.65625 C 185.597656 230.417969 185.28125 231.207031 185.046875 231.984375 C 184.816406 231.207031 184.5 230.417969 184.070312 229.65625 C 183.675781 228.957031 183.214844 228.335938 182.71875 227.777344 C 183.296875 225.484375 184.488281 223.652344 185.046875 222.878906 Z M 191.324219 232.785156 C 189.714844 235.636719 186.8125 237.222656 185.542969 237.808594 C 185.628906 236.976562 185.703125 235.523438 185.460938 233.863281 C 185.648438 232.636719 186.023438 231.304688 186.722656 230.066406 C 188.40625 227.085938 191.503906 225.488281 192.671875 224.96875 C 192.816406 226.257812 193.011719 229.804688 191.324219 232.785156 Z M 199.164062 230.132812 C 199.105469 230.027344 199.007812 229.957031 198.890625 229.933594 C 198.773438 229.910156 196.148438 229.421875 193.191406 230.144531 C 193.894531 227.140625 193.421875 224.464844 193.394531 224.316406 C 193.371094 224.195312 193.300781 224.09375 193.199219 224.035156 C 193.097656 223.976562 192.976562 223.964844 192.863281 224.003906 C 192.726562 224.054688 190.21875 224.972656 188.023438 227.097656 C 187.15625 224.117188 185.429688 222.039062 185.351562 221.945312 C 185.277344 221.855469 185.164062 221.804688 185.046875 221.804688 C 184.929688 221.804688 184.820312 221.855469 184.742188 221.945312 C 184.667969 222.039062 182.941406 224.117188 182.070312 227.097656 C 179.878906 224.972656 177.371094 224.054688 177.230469 224.003906 C 177.121094 223.964844 177 223.976562 176.898438 224.035156 C 176.796875 224.09375 176.726562 224.195312 176.703125 224.316406 C 176.675781 224.464844 176.203125 227.140625 176.90625 230.144531 C 173.949219 229.421875 171.324219 229.910156 171.203125 229.933594 C 171.089844 229.957031 170.988281 230.027344 170.929688 230.132812 C 170.871094 230.234375 170.863281 230.359375 170.898438 230.472656 C 170.964844 230.664062 172.546875 235.171875 176.433594 237.464844 C 178.632812 238.761719 181.066406 239.050781 182.796875 239.050781 C 183.953125 239.050781 184.792969 238.921875 185.046875 238.878906 C 185.304688 238.921875 186.144531 239.050781 187.300781 239.050781 C 189.03125 239.050781 191.464844 238.761719 193.664062 237.464844 C 197.550781 235.171875 199.132812 230.664062 199.195312 230.472656 C 199.234375 230.359375 199.222656 230.234375 199.164062 230.132812 " fill-opacity="1" fill-rule="nonzero"/></g><path stroke-linecap="butt" transform="matrix(0.752036, 0.00331463, -0.00330562, 0.749993, 79.137362, 228.55607)" fill="none" stroke-linejoin="miter" d="M -0.00246025 1.998187 L 114.691376 2.001714 " stroke="#42a8aa" stroke-width="4" stroke-opacity="1" stroke-miterlimit="4"/><path stroke-linecap="butt" transform="matrix(0.752036, 0.00331463, -0.00330562, 0.749993, 204.971182, 230.245634)" fill="none" stroke-linejoin="miter" d="M 0.000365464 2.000631 L 114.694179 1.99895 " stroke="#42a8aa" stroke-width="4" stroke-opacity="1" stroke-miterlimit="4"/></svg>